<mxfile host="Electron" agent="Mozilla/5.0 (Macintosh; Intel Mac OS X 10_15_7) AppleWebKit/537.36 (KHTML, like Gecko) draw.io/28.0.6 Chrome/138.0.7204.100 Electron/37.2.3 Safari/537.36" version="28.0.6">
  <diagram id="gheaF2WTTuaTawPU-Ukx" name="Database Schema">
    <mxGraphModel dx="1426" dy="859" grid="1" gridSize="10" guides="1" tooltips="1" connect="1" arrows="1" fold="1" page="1" pageScale="1" pageWidth="1169" pageHeight="827" math="0" shadow="0">
      <root>
        <mxCell id="0" />
        <mxCell id="1" parent="0" />
        <mxCell id="b11KZE6-RopnyiMqC1BA-1" value="original_documents&lt;br&gt;- id (PK)&lt;br&gt;- original_file&lt;br&gt;- import_datetime" style="shape=rectangle;whiteSpace=wrap;html=1;rounded=1;fillColor=#dae8fc;align=left;verticalAlign=top;fontSize=12;" parent="1" vertex="1">
          <mxGeometry x="260" y="220" width="240" height="140" as="geometry" />
        </mxCell>
        <mxCell id="b11KZE6-RopnyiMqC1BA-2" value="labels&#xa;- id (PK)&#xa;- document_id (FK)&#xa;- source&#xa;- label" style="shape=rectangle;whiteSpace=wrap;html=1;rounded=1;fillColor=#e1d5e7;align=left;verticalAlign=top;fontSize=12;" parent="1" vertex="1">
          <mxGeometry x="540" y="220" width="200" height="100" as="geometry" />
        </mxCell>
        <mxCell id="b11KZE6-RopnyiMqC1BA-3" value="processed_images&#xa;- id (PK)&#xa;- document_id (FK)&#xa;- image_file&#xa;- processor&#xa;- processing_datetime" style="shape=rectangle;whiteSpace=wrap;html=1;rounded=1;fillColor=#fff2cc;align=left;verticalAlign=top;fontSize=12;" parent="1" vertex="1">
          <mxGeometry x="540" y="340" width="240" height="120" as="geometry" />
        </mxCell>
        <mxCell id="b11KZE6-RopnyiMqC1BA-4" value="raw_texts&#xa;- id (PK)&#xa;- document_id (FK)&#xa;- processor&#xa;- processing_datetime" style="shape=rectangle;whiteSpace=wrap;html=1;rounded=1;fillColor=#d5e8d4;align=left;verticalAlign=top;fontSize=12;" parent="1" vertex="1">
          <mxGeometry x="260" y="380" width="240" height="100" as="geometry" />
        </mxCell>
        <mxCell id="b11KZE6-RopnyiMqC1BA-5" value="processed_texts&#xa;- id (PK)&#xa;- raw_text (FK)&#xa;- processor&#xa;- processing_datetime" style="shape=rectangle;whiteSpace=wrap;html=1;rounded=1;fillColor=#f8cecc;align=left;verticalAlign=top;fontSize=12;" parent="1" vertex="1">
          <mxGeometry x="260" y="500" width="240" height="100" as="geometry" />
        </mxCell>
        <mxCell id="b11KZE6-RopnyiMqC1BA-6" value="embeddings&#xa;- id (PK)&#xa;- processed_image (FK)&#xa;- processed_text (FK)&#xa;- clip_version&#xa;- embeddings [1024]" style="shape=rectangle;whiteSpace=wrap;html=1;rounded=1;fillColor=#f5f5f5;align=left;verticalAlign=top;fontSize=12;" parent="1" vertex="1">
          <mxGeometry x="540" y="500" width="260" height="120" as="geometry" />
        </mxCell>
        <mxCell id="b11KZE6-RopnyiMqC1BA-7" style="endArrow=block;endFill=1;" parent="1" source="b11KZE6-RopnyiMqC1BA-2" target="b11KZE6-RopnyiMqC1BA-1" edge="1">
          <mxGeometry relative="1" as="geometry" />
        </mxCell>
        <mxCell id="b11KZE6-RopnyiMqC1BA-8" style="endArrow=block;endFill=1;" parent="1" source="b11KZE6-RopnyiMqC1BA-3" target="b11KZE6-RopnyiMqC1BA-1" edge="1">
          <mxGeometry relative="1" as="geometry" />
        </mxCell>
        <mxCell id="b11KZE6-RopnyiMqC1BA-9" style="endArrow=block;endFill=1;" parent="1" source="b11KZE6-RopnyiMqC1BA-4" target="b11KZE6-RopnyiMqC1BA-1" edge="1">
          <mxGeometry relative="1" as="geometry" />
        </mxCell>
        <mxCell id="b11KZE6-RopnyiMqC1BA-10" style="endArrow=block;endFill=1;" parent="1" source="b11KZE6-RopnyiMqC1BA-5" target="b11KZE6-RopnyiMqC1BA-4" edge="1">
          <mxGeometry relative="1" as="geometry" />
        </mxCell>
        <mxCell id="b11KZE6-RopnyiMqC1BA-11" style="endArrow=block;endFill=1;" parent="1" source="b11KZE6-RopnyiMqC1BA-6" target="b11KZE6-RopnyiMqC1BA-3" edge="1">
          <mxGeometry relative="1" as="geometry" />
        </mxCell>
        <mxCell id="b11KZE6-RopnyiMqC1BA-12" style="endArrow=block;endFill=1;" parent="1" source="b11KZE6-RopnyiMqC1BA-6" target="b11KZE6-RopnyiMqC1BA-5" edge="1">
          <mxGeometry relative="1" as="geometry" />
        </mxCell>
      </root>
    </mxGraphModel>
  </diagram>
</mxfile>
